<svg xmlns="http://www.w3.org/2000/svg" width="32" height="32" viewBox="0 0 32 32" fill="none"><script xmlns=""/> <g clip-path="url(#clip0_1733_43449)"> <mask id="mask0_1733_43449" style="mask-type:alpha" maskUnits="userSpaceOnUse" x="0" y="0" width="32" height="32"> <path d="M0 9.48149C0 5.01187 0 2.77706 1.38853 1.38853C2.77706 0 5.01187 0 9.48149 0H22.5185C26.9881 0 29.223 0 30.6115 1.38853C32 2.77706 32 5.01187 32 9.48149V22.5185C32 26.9881 32 29.223 30.6115 30.6115C29.223 32 26.9882 32 22.5185 32H9.48149C5.01187 32 2.77706 32 1.38853 30.6115C0 29.223 0 26.9882 0 22.5185V9.48149Z" fill="white"/> </mask> <g mask="url(#mask0_1733_43449)"> <rect width="32" height="32" fill="url(#paint0_radial_1733_43449)"/> </g> <path fill-rule="evenodd" clip-rule="evenodd" d="M9.82159 6.08214C8.70052 6.1376 7.64956 6.2488 6.66985 6.41714L6 6.53224V26.8H10.6944V19.6977L11.4034 19.7404H15.0513C16.3878 19.7404 17.689 19.6285 18.9542 19.4037C20.2367 19.1759 21.395 18.8021 22.4205 18.2735L22.4257 18.2708L22.431 18.268C23.4715 17.7117 24.3286 16.984 24.9816 16.0778C25.6741 15.1167 26 13.9586 26 12.6537C26 11.322 25.6439 10.1556 24.8805 9.22183C24.1934 8.35163 23.3025 7.68234 22.2316 7.20426C21.1856 6.73726 20.0314 6.42176 18.7751 6.25078C17.5724 6.08375 16.3808 6 15.2006 6C14.1336 6 10.938 6.02692 9.82159 6.08214ZM17.5428 9.79688C18.2746 9.91303 18.9068 10.1091 19.4477 10.3759L19.4612 10.3825L19.475 10.3887C20.015 10.6298 20.4079 10.9455 20.6858 11.3218L20.6978 11.3381L20.7106 11.3538C20.9665 11.6671 21.1167 12.0796 21.1167 12.654C21.1167 13.3746 20.9433 13.8937 20.654 14.2764L20.6468 14.286L20.6398 14.2958C20.3327 14.7274 19.9136 15.0738 19.3569 15.3281C18.763 15.5994 18.0779 15.7976 17.295 15.9151C16.5103 16.0183 15.7128 16.07 14.9021 16.07H11.3749C11.1428 16.0563 10.9143 16.0478 10.6944 16.0445L10.6969 9.67799C10.8851 9.66251 11.0984 9.65085 11.3379 9.64361C11.9204 9.62601 14.6231 9.6169 15.2753 9.6169C16.0305 9.6169 16.7862 9.67681 17.5428 9.79688Z" fill="white"/> </g> <defs> <radialGradient id="paint0_radial_1733_43449" cx="0" cy="0" r="1" gradientUnits="userSpaceOnUse" gradientTransform="translate(32 -1.11712e-06) rotate(131.547) scale(50.0856 50.0855)"> <stop stop-color="#FF7B24"/> <stop offset="0.0666667" stop-color="#FF7A24"/> <stop offset="0.133333" stop-color="#FF7823"/> <stop offset="0.2" stop-color="#FF7521"/> <stop offset="0.266667" stop-color="#FF701F"/> <stop offset="0.333333" stop-color="#FF691C"/> <stop offset="0.4" stop-color="#FF6218"/> <stop offset="0.466667" stop-color="#FF5915"/> <stop offset="0.533333" stop-color="#FF5110"/> <stop offset="0.6" stop-color="#FF480D"/> <stop offset="0.666667" stop-color="#FF4109"/> <stop offset="0.733333" stop-color="#FF3A06"/> <stop offset="0.8" stop-color="#FF3504"/> <stop offset="0.866667" stop-color="#FF3202"/> <stop offset="0.933333" stop-color="#FF3001"/> <stop offset="1" stop-color="#FF2F01"/> </radialGradient> <clipPath id="clip0_1733_43449"> <rect width="32" height="32" fill="white"/> </clipPath> </defs> </svg>
